<svg version="1.1" viewBox="0.0 0.0 377.9527559055118 377.9527559055118" fill="none" stroke="none" stroke-linecap="square" stroke-miterlimit="10" xmlns:xlink="http://www.w3.org/1999/xlink" xmlns="http://www.w3.org/2000/svg"><clipPath id="p.0"><path d="m0 0l377.95276 0l0 377.95276l-377.95276 0l0 -377.95276z" clip-rule="nonzero"/></clipPath><g clip-path="url(#p.0)"><path fill="#000000" fill-opacity="0.0" d="m0 0l377.95276 0l0 377.95276l-377.95276 0z" fill-rule="evenodd"/><path fill="#fff2cc" d="m188.97507 19.795925l-188.62993 131.62204l188.62993 131.62204l188.62991 -131.62204z" fill-rule="evenodd"/><path stroke="#000000" stroke-width="3.0" stroke-linejoin="round" stroke-linecap="butt" d="m188.97507 19.795925l-188.62993 131.62204l188.62993 131.62204l188.62991 -131.62204z" fill-rule="evenodd"/><path fill="#ff9900" d="m44.325043 116.934616l-7.338581 -90.23622l81.85826 38.645668z" fill-rule="evenodd"/><path stroke="#000000" stroke-width="2.0" stroke-linejoin="round" stroke-linecap="butt" d="m44.325043 116.934616l-7.338581 -90.23622l81.85826 38.645668z" fill-rule="evenodd"/><path fill="#00ffff" d="m98.856964 90.05135l0 0c0 -4.8097534 3.8990784 -8.708832 8.708839 -8.708832l162.83429 0c2.3097534 0 4.524872 0.9175339 6.158081 2.5507584c1.6332397 1.6332245 2.5507812 3.8483505 2.5507812 6.1580734l0 34.834297c0 4.8097534 -3.8990784 8.708832 -8.708862 8.708832l-162.83429 0c-4.809761 0 -8.708839 -3.8990784 -8.708839 -8.708832z" fill-rule="evenodd"/><path stroke="#000000" stroke-width="2.0" stroke-linejoin="round" stroke-linecap="butt" d="m98.856964 90.05135l0 0c0 -4.8097534 3.8990784 -8.708832 8.708839 -8.708832l162.83429 0c2.3097534 0 4.524872 0.9175339 6.158081 2.5507584c1.6332397 1.6332245 2.5507812 3.8483505 2.5507812 6.1580734l0 34.834297c0 4.8097534 -3.8990784 8.708832 -8.708862 8.708832l-162.83429 0c-4.809761 0 -8.708839 -3.8990784 -8.708839 -8.708832z" fill-rule="evenodd"/><path fill="#ff9900" d="m333.18893 117.03031l7.936981 -90.173225l-82.14172 38.078735z" fill-rule="evenodd"/><path stroke="#000000" stroke-width="2.0" stroke-linejoin="round" stroke-linecap="butt" d="m333.18893 117.03031l7.936981 -90.173225l-82.14172 38.078735z" fill-rule="evenodd"/><path fill="#000000" fill-opacity="0.0" d="m0.35301837 300.89108l377.25983 0l0 52.251953l-377.25983 0z" fill-rule="evenodd"/><path fill="#6aa84f" d="m45.799294 325.72858l-22.515627 0l0 16.328125l22.515627 0l0 6.234375l-22.796877 0q-2.46875 0 -4.203125 -1.71875q-1.71875 -1.71875 -1.71875 -4.203125l0 -16.953125q0 -2.484375 1.71875 -4.203125q1.734375 -1.71875 4.203125 -1.71875l22.796877 0l0 6.234375z" fill-rule="nonzero"/><path fill="#6aa84f" d="m64.22614 328.96295q2.0 0 3.40625 1.4375q1.421875 1.421875 1.421875 3.390625l0 14.5l-14.765625 0q-2.0 0 -3.421875 -1.421875q-1.40625 -1.4375 -1.40625 -3.40625l0 -7.40625l14.5 0l0 -2.0l-14.5 0l0 -5.09375l14.765625 0zm-0.265625 14.234375l0 -2.671875l-9.40625 0l0 2.671875l9.40625 0zm20.926544 -9.140625l-7.171875 0l0 9.140625l7.171875 0l0 5.09375l-7.40625 0q-2.03125 0 -3.453125 -1.421875q-1.40625 -1.4375 -1.40625 -3.40625l0 -20.234375l5.09375 0l0 5.734375l7.171875 0l0 5.09375z" fill-rule="nonzero"/><path fill="#6aa84f" d="m116.8399 325.72858l-22.515625 0l0 16.328125l22.515625 0l0 6.234375l-22.796875 0q-2.46875 0 -4.203125 -1.71875q-1.71875 -1.71875 -1.71875 -4.203125l0 -16.953125q0 -2.484375 1.71875 -4.203125q1.734375 -1.71875 4.203125 -1.71875l22.796875 0l0 6.234375z" fill-rule="nonzero"/><path fill="#6aa84f" d="m135.26674 328.96295q2.0 0 3.40625 1.4375q1.421875 1.421875 1.421875 3.390625l0 14.5l-14.765617 0q-2.0 0 -3.421875 -1.421875q-1.40625 -1.4375 -1.40625 -3.40625l0 -7.40625l14.499992 0l0 -2.0l-14.499992 0l0 -5.09375l14.765617 0zm-0.265625 14.234375l0 -2.671875l-9.406242 0l0 2.671875l9.406242 0zm23.157791 -14.234375q2.0 0 3.40625 1.4375q1.421875 1.421875 1.421875 3.390625l0 14.5l-5.09375 0l0 -14.234375l-9.390625 0l0 14.234375l-5.109375 0l0 -19.328125l14.765625 0z" fill-rule="nonzero"/><path fill="#6aa84f" d="m195.74586 325.72858l-22.515625 0l0 16.328125l22.515625 0l0 6.234375l-22.796875 0q-2.46875 0 -4.203125 -1.71875q-1.71875 -1.71875 -1.71875 -4.203125l0 -16.953125q0 -2.484375 1.71875 -4.203125q1.734375 -1.71875 4.203125 -1.71875l22.796875 0l0 6.234375z" fill-rule="nonzero"/><path fill="#6aa84f" d="m204.20396 328.96295l9.9375 0q2.0 0 3.40625 1.4375q1.421875 1.421875 1.421875 3.390625l0 9.671875q0 1.96875 -1.421875 3.40625q-1.40625 1.421875 -3.40625 1.421875l-9.9375 0q-1.96875 0 -3.40625 -1.421875q-1.421875 -1.4375 -1.421875 -3.40625l0 -9.671875q0 -1.96875 1.421875 -3.390625q1.4375 -1.4375 3.40625 -1.4375zm0.265625 5.09375l0 9.140625l9.40625 0l0 -9.140625l-9.40625 0zm31.563019 -11.421875l5.09375 0l0 25.65625l-14.796875 0q-2.0 0 -3.421875 -1.421875q-1.40625 -1.4375 -1.40625 -3.40625l0 -9.671875q0 -1.96875 1.40625 -3.390625q1.421875 -1.4375 3.421875 -1.4375l9.703125 0l0 -6.328125zm-9.390625 11.421875l0 9.140625l9.390625 0l0 -9.140625l-9.390625 0zm32.02568 -5.09375q2.0 0 3.40625 1.4375q1.421875 1.421875 1.421875 3.390625l0 7.40625l-14.5000305 0l0 2.0l14.5000305 0l0 5.09375l-14.7656555 0q-1.96875 0 -3.40625 -1.421875q-1.421875 -1.4375 -1.421875 -3.40625l0 -9.671875q0 -1.96875 1.421875 -3.390625q1.4375 -1.4375 3.40625 -1.4375l9.9375305 0zm-9.6719055 7.765625l9.4062805 0l0 -2.671875l-9.4062805 0l0 2.671875z" fill-rule="nonzero"/><path fill="#6aa84f" d="m273.54315 342.16608l0 6.125l-6.125 0l0 -6.125l6.125 0zm31.991882 -16.4375l-22.515625 0l0 16.328125l22.515625 0l0 6.234375l-22.796875 0q-2.46875 0 -4.203125 -1.71875q-1.71875 -1.71875 -1.71875 -4.203125l0 -16.953125q0 -2.484375 1.71875 -4.203125q1.734375 -1.71875 4.203125 -1.71875l22.796875 0l0 6.234375z" fill-rule="nonzero"/><path fill="#6aa84f" d="m313.99316 328.96295l9.9375 0q2.0 0 3.40625 1.4375q1.421875 1.421875 1.421875 3.390625l0 9.671875q0 1.96875 -1.421875 3.40625q-1.40625 1.421875 -3.40625 1.421875l-9.9375 0q-1.96875 0 -3.40625 -1.421875q-1.421875 -1.4375 -1.421875 -3.40625l0 -9.671875q0 -1.96875 1.421875 -3.390625q1.4375 -1.4375 3.40625 -1.4375zm0.265625 5.09375l0 9.140625l9.40625 0l0 -9.140625l-9.40625 0zm41.328644 -5.09375q2.0 0 3.40625 1.4375q1.421875 1.421875 1.421875 3.390625l0 14.5l-5.0625 0l0 -14.234375l-6.390625 0l0 14.234375l-5.140625 0l0 -14.234375l-6.390625 0l0 14.234375l-5.109375 0l0 -19.328125l23.265625 0z" fill-rule="nonzero"/><path fill="#ff00ff" d="m152.09973 155.08005l36.881897 31.968506l36.88188 -31.968506z" fill-rule="evenodd"/><path stroke="#000000" stroke-width="2.0" stroke-linejoin="round" stroke-linecap="butt" d="m152.09973 155.08005l36.881897 31.968506l36.88188 -31.968506z" fill-rule="evenodd"/><path fill="#ffffff" d="m225.86328 212.4095l9.842514 14.330704l4.929138 -16.661407z" fill-rule="evenodd"/><path stroke="#000000" stroke-width="1.0" stroke-linejoin="round" stroke-linecap="butt" d="m225.86328 212.4095l9.842514 14.330704l4.929138 -16.661407z" fill-rule="evenodd"/><path fill="#000000" fill-opacity="0.0" d="m186.52657 192.62401l0 0c-5.806305 11.243515 -17.422653 18.45433 -30.632126 19.014786c-13.209473 0.5604706 -26.091599 -5.6108856 -33.96994 -16.273773l30.507584 -20.331573z" fill-rule="evenodd"/><path fill="#000000" fill-opacity="0.0" d="m186.52657 192.62401l0 0c-5.806305 11.243515 -17.422653 18.45433 -30.632126 19.014786c-13.209473 0.5604706 -26.091599 -5.6108856 -33.96994 -16.273773" fill-rule="evenodd"/><path stroke="#000000" stroke-width="3.0" stroke-linejoin="round" stroke-linecap="butt" d="m186.52657 192.62401l0 0c-5.806305 11.243515 -17.422653 18.45433 -30.632126 19.014786c-13.209473 0.5604706 -26.091599 -5.6108856 -33.96994 -16.273773" fill-rule="evenodd"/><path fill="#000000" fill-opacity="0.0" d="m202.68427 213.51933l0 0c-2.9141388 4.8203278 -8.141815 7.761505 -13.771072 7.7478027c-5.629242 -0.013687134 -10.834335 -2.9802399 -13.711563 -7.8146667l13.772827 -8.20932z" fill-rule="evenodd"/><path fill="#000000" fill-opacity="0.0" d="m202.68427 213.51933l0 0c-2.9141388 4.8203278 -8.141815 7.761505 -13.771072 7.7478027c-5.629242 -0.013687134 -10.834335 -2.9802399 -13.711563 -7.8146667" fill-rule="evenodd"/><path stroke="#000000" stroke-width="3.0" stroke-linejoin="round" stroke-linecap="butt" d="m202.68427 213.51933l0 0c-2.9141388 4.8203278 -8.141815 7.761505 -13.771072 7.7478027c-5.629242 -0.013687134 -10.834335 -2.9802399 -13.711563 -7.8146667" fill-rule="evenodd"/><path fill="#000000" fill-opacity="0.0" d="m191.33759 192.62401l0 0c5.806305 11.243515 17.422653 18.45433 30.632141 19.014786c13.209473 0.5604706 26.091583 -5.6108856 33.96994 -16.273773l-30.507584 -20.331573z" fill-rule="evenodd"/><path fill="#000000" fill-opacity="0.0" d="m191.33759 192.62401l0 0c5.806305 11.243515 17.422653 18.45433 30.632141 19.014786c13.209473 0.5604706 26.091583 -5.6108856 33.96994 -16.273773" fill-rule="evenodd"/><path stroke="#000000" stroke-width="3.0" stroke-linejoin="round" stroke-linecap="butt" d="m191.33759 192.62401l0 0c5.806305 11.243515 17.422653 18.45433 30.632141 19.014786c13.209473 0.5604706 26.091583 -5.6108856 33.96994 -16.273773" fill-rule="evenodd"/></g></svg>